<svg width="16" height="19" viewBox="0 0 16 19" fill="none" xmlns="http://www.w3.org/2000/svg">
<g opacity="0.7">
<path d="M1.89474 7.78906H0.421053C0.189474 7.78906 0 7.97854 0 8.21012C0 8.44169 0.189474 8.63117 0.421053 8.63117H1.89474C2.12632 8.63117 2.31579 8.44169 2.31579 8.21012C2.31579 7.97854 2.12632 7.78906 1.89474 7.78906Z" fill="#6A6A6A"/>
<path d="M15.5789 7.78906H14.1053C13.8737 7.78906 13.6842 7.97854 13.6842 8.21012C13.6842 8.44169 13.8737 8.63117 14.1053 8.63117H15.5789C15.8105 8.63117 16 8.44169 16 8.21012C16 7.97854 15.8105 7.78906 15.5789 7.78906Z" fill="#6A6A6A"/>
<path d="M7.57886 0.421053V1.89474C7.57886 2.12632 7.76833 2.31579 7.99991 2.31579C8.23149 2.31579 8.42096 2.12632 8.42096 1.89474V0.421053C8.42096 0.189474 8.23149 0 7.99991 0C7.76833 0 7.57886 0.189474 7.57886 0.421053Z" fill="#6A6A6A"/>
<path d="M2.96835 2.54721C2.79993 2.37879 2.5473 2.37879 2.37888 2.54721C2.21046 2.71564 2.21046 2.96827 2.37888 3.13669L3.41046 4.16827C3.49467 4.25248 3.59993 4.29458 3.7052 4.29458C3.81046 4.29458 3.91572 4.25248 3.99993 4.16827C4.16835 3.99985 4.16835 3.74721 3.99993 3.57879L2.96835 2.54721Z" fill="#6A6A6A"/>
<path d="M12.5894 12.1683C12.421 11.9999 12.1684 11.9999 12 12.1683C11.8316 12.3367 11.8316 12.5894 12 12.7578L13.0316 13.7894C13.1158 13.8736 13.221 13.9157 13.3263 13.9157C13.4316 13.9157 13.5368 13.8736 13.621 13.7894C13.7894 13.6209 13.7894 13.3683 13.621 13.1999L12.5894 12.1683Z" fill="#6A6A6A"/>
<path d="M13.0316 2.54721L12 3.57879C11.8316 3.74721 11.8316 3.99985 12 4.16827C12.0842 4.25248 12.1894 4.29458 12.2947 4.29458C12.4 4.29458 12.5052 4.25248 12.5894 4.16827L13.621 3.13669C13.7894 2.96827 13.7894 2.71564 13.621 2.54721C13.4737 2.37879 13.2 2.37879 13.0316 2.54721Z" fill="#6A6A6A"/>
<path d="M3.41046 12.1683L2.37888 13.1999C2.21046 13.3683 2.21046 13.6209 2.37888 13.7894C2.46309 13.8736 2.56835 13.9157 2.67362 13.9157C2.77888 13.9157 2.88414 13.8736 2.96835 13.7894L3.99993 12.7578C4.16835 12.5894 4.16835 12.3367 3.99993 12.1683C3.83151 11.9999 3.57888 11.9999 3.41046 12.1683Z" fill="#6A6A6A"/>
<path d="M11.4736 4.31531C10.442 3.34689 9.09467 2.86268 7.68415 2.94689C5.17888 3.09426 3.15783 5.09426 2.96836 7.57847C2.84204 9.19952 3.49467 10.7153 4.71573 11.7679C5.32625 12.2943 5.68415 13.0522 5.68415 13.8943L5.7052 15.3679V15.789C5.7052 17.1364 6.86309 18.3153 8.21046 18.3153C9.49467 18.3153 10.5263 17.1995 10.5263 15.789V15.3679L10.5473 13.4732C10.5473 12.6311 11.1368 11.9153 11.4947 11.5785C12.5052 10.6311 13.0526 9.32584 13.0526 7.95742C13.0526 6.56794 12.4841 5.26268 11.4736 4.31531ZM8.18941 17.4732C7.3052 17.4732 6.52625 16.6943 6.52625 15.789H8.21046H9.68415C9.68415 16.61 9.11573 17.4732 8.18941 17.4732ZM10.9052 10.9679C10.1263 11.7048 9.68415 12.61 9.68415 13.4522V14.9469H8.63152L8.61046 9.789C9.34731 9.59952 9.89467 8.92584 9.89467 8.12584C9.89467 7.89426 9.7052 7.70479 9.47362 7.70479C9.24204 7.70479 9.05257 7.89426 9.05257 8.12584C9.05257 8.61005 8.67362 8.989 8.18941 8.989C7.7052 8.989 7.32625 8.61005 7.32625 8.12584C7.32625 7.89426 7.13678 7.70479 6.9052 7.70479C6.67362 7.70479 6.48415 7.89426 6.48415 8.12584C6.48415 8.92584 7.03152 9.59952 7.76836 9.789L7.78941 14.9469H6.52625V13.8943C6.52625 12.7995 6.08415 11.8101 5.26309 11.1364C4.23152 10.2732 3.7052 8.989 3.81046 7.66268C3.95783 5.59952 5.64204 3.93637 7.72625 3.81005C8.9052 3.72584 10.042 4.14689 10.8841 4.94689C11.7263 5.74689 12.2105 6.82058 12.2105 7.97847C12.2105 9.11531 11.7473 10.189 10.9052 10.9679Z" fill="#6A6A6A"/>
</g>
</svg>
