<svg width="20" height="20" viewBox="0 0 20 20" fill="none" xmlns="http://www.w3.org/2000/svg">
<path d="M19.2778 9.20779C18.5935 9.20779 17.9093 9.20779 17.2252 9.20779C16.8731 5.82385 14.1747 3.15858 10.8342 2.81411C10.8342 2.11679 10.8342 1.41947 10.8342 0.722149C10.8342 -0.240716 9.34116 -0.240716 9.34116 0.722149C9.34116 1.42019 9.34116 2.11847 9.34116 2.81651C7.53969 3.00338 5.89893 3.84846 4.69643 5.21792C3.70118 6.35134 3.10149 7.73663 2.95013 9.20755C2.20747 9.20755 1.46481 9.20755 0.722149 9.20755C-0.240716 9.20755 -0.240716 10.7005 0.722149 10.7005C1.46481 10.7005 2.20771 10.7005 2.9506 10.7005C3.30562 14.0823 6.00376 16.7464 9.3414 17.0942C9.3414 17.764 9.3414 18.4335 9.3414 19.1032C9.3414 20.0661 10.8344 20.0661 10.8344 19.1032C10.8344 18.4332 10.8344 17.763 10.8344 17.093C14.239 16.7378 16.8807 14.0243 17.2257 10.7008C17.9098 10.7008 18.5939 10.7008 19.2781 10.7008C20.2407 10.7008 20.2407 9.20779 19.2778 9.20779ZM10.4573 15.6288C7.31372 15.8339 4.61943 13.4287 4.41505 10.3242C4.31742 8.80864 4.81565 7.34491 5.81833 6.20309C6.82102 5.06152 8.2075 4.37883 9.72353 4.28096C9.84946 4.27257 9.97516 4.26849 10.0997 4.26849C13.0816 4.26849 15.5681 6.60441 15.7605 9.58656C15.9644 12.7141 13.5851 15.4244 10.4573 15.6288Z" fill="white"/>
<path d="M9.82905 5.91709C7.60323 6.06269 5.90826 7.9913 6.05099 10.2178C6.19108 12.3391 7.96401 14.0009 10.0869 14.0009C10.174 14.0009 10.2623 13.9981 10.3517 13.9923C12.5761 13.8453 14.2689 11.9166 14.1248 9.69299C13.983 7.48324 12.0714 5.76932 9.82905 5.91709ZM10.2546 12.5027C8.8398 12.5919 7.63298 11.5141 7.54087 10.1209C7.45091 8.71645 8.521 7.49883 9.9262 7.40696C9.98257 7.40336 10.0387 7.40144 10.0944 7.40144C11.4329 7.40144 12.5485 8.45019 12.6347 9.78942C12.7258 11.1927 11.6574 12.4098 10.2546 12.5027Z" fill="white"/>
</svg>
