<svg width="207" height="207" viewBox="0 0 207 207" fill="none" xmlns="http://www.w3.org/2000/svg">
<circle cx="103.5" cy="103.5" r="103.5" fill="#C2E8FF"/>
<mask id="mask0_72_2967" style="mask-type:alpha" maskUnits="userSpaceOnUse" x="0" y="0" width="207" height="207">
<circle cx="103.5" cy="103.5" r="103.5" fill="#C2E8FF"/>
</mask>
<g mask="url(#mask0_72_2967)">
<path d="M201.168 156.504C206.96 156.098 213.338 155.592 220 155.027V148H151.228C131.525 149.053 117.632 149.718 117.561 150.96C117.437 153.208 162.485 154.686 162.249 156.304C161.858 159 37.0513 157.681 35.9853 162.195C35.5708 163.943 54.0948 165.238 53.6092 167.098C52.6499 170.764 -20.4751 170.487 -40 172.612V175.202C-33.9655 176.202 -24.36 177.161 -24.585 178.344C-24.7627 179.28 -30.8979 179.498 -40 179.692V184H-26.3498C-22.7669 180.751 70.8245 181.658 71.9083 177.503C72.3939 175.643 53.8698 174.348 54.2844 172.6C55.3503 168.086 180.157 169.405 180.548 166.709C180.784 165.091 135.73 163.614 135.86 161.365C135.967 159.517 166.418 158.952 201.168 156.498V156.504Z" fill="#96CAFF"/>
<g clip-path="url(#clip0_72_2967)">
<path d="M70.4555 104.076C61.0244 94.2497 57.4662 104.996 57.4662 104.996C52.535 90.7202 29.2734 99.2024 29.2734 99.2024C14.5301 81.1453 -16.006 93.7393 -16.006 93.7393C-13.2457 81.9576 -29.3691 83.7187 -29.3691 83.7187C-31.0009 71.3116 -49.2593 76.0056 -49.2593 76.0056C-57.756 61.0682 -67.5968 56.4461 -75.6046 55.7129V110.208H96.2833C87.3769 98.6561 70.4555 104.069 70.4555 104.069V104.076Z" fill="#FFFDFB"/>
<path d="M137.631 106.484C147.062 100.518 150.62 107.037 150.62 107.037C155.551 98.3682 178.813 103.522 178.813 103.522C193.556 92.56 224.092 100.208 224.092 100.208C221.332 93.056 237.455 94.1271 237.455 94.1271C239.087 86.5937 257.346 89.4474 257.346 89.4474C265.842 80.3829 275.683 77.5795 283.691 77.1338V110.207H111.803C120.709 103.199 137.631 106.484 137.631 106.484Z" fill="#FFFDFB"/>
<path d="M143.314 81.0667V84.8047H132.991L131.165 86.0339V110.208H132.991H132.998H145.319H147.397H159.717V69.5869L147.397 75.963L143.314 81.0667Z" fill="#4789EB"/>
<path d="M99.4647 75.9627L97.4232 79.1256L97.3873 110.208H99.4647H111.786V75.8262H99.4647V75.9627Z" fill="#4789EB"/>
<path d="M175.287 77.3076H167.761V110.209H175.287V77.3076Z" fill="#4789EB"/>
<path d="M178.105 77.3076L177.02 79.1119V110.209H178.105H185.632V77.3076H178.105Z" fill="#4789EB"/>
<path d="M166.676 110.209H167.761V77.3076L166.676 79.1119V110.209Z" fill="#4789EB"/>
<path d="M114.733 81.4404L112.907 82.6696V110.208H114.733H122.259V81.4476H114.733V81.4404Z" fill="#4789EB"/>
<path d="M204.062 75.9627L202.021 79.1256L202.014 84.8044H190.34L188.507 86.0336V110.208H190.34H192.726V110.934H194.006V110.208H195.896V110.934H197.183V110.208H199.074V110.934H200.36V110.208H201.985H202.661H204.062H216.391V75.8262H204.062V75.9627Z" fill="#4789EB"/>
<path d="M43.2733 88.5713H30.9453V113.975H43.2733V88.5713Z" fill="#7EBEFF"/>
<path d="M15.9001 81.0742H8.37389V113.975H15.9001V81.0742Z" fill="#7EBEFF"/>
<path d="M26.2369 81.0742H18.7107V113.975H26.2369V81.0742Z" fill="#7EBEFF"/>
<path d="M0.330118 113.975H-11.9979V79.7296L0.330118 73.3535V113.975Z" fill="#7EBEFF"/>
<path d="M33.3319 96.0039H34.6114V91.6046H33.3319V96.0039Z" fill="#4789EB"/>
<path d="M36.5091 96.0039H37.7886V91.6046H36.5091V96.0039Z" fill="#4789EB"/>
<path d="M39.6864 96.0039H40.9659V91.6046H39.6864V96.0039Z" fill="#4789EB"/>
<path d="M33.3319 102.243H34.6114V97.8439H33.3319V102.243Z" fill="#4789EB"/>
<path d="M36.5091 102.243H37.7886V97.8439H36.5091V102.243Z" fill="#4789EB"/>
<path d="M39.6864 102.243H40.9659V97.8439H39.6864V102.243Z" fill="#4789EB"/>
<path d="M33.3319 108.469H34.6114V104.069H33.3319V108.469Z" fill="#4789EB"/>
<path d="M36.5091 108.469H37.7886V104.069H36.5091V108.469Z" fill="#4789EB"/>
<path d="M39.6864 108.469H40.9659V104.069H39.6864V108.469Z" fill="#4789EB"/>
<path d="M33.3319 114.693H34.6114V110.294H33.3319V114.693Z" fill="#4789EB"/>
<path d="M36.5091 114.693H37.7886V110.294H36.5091V114.693Z" fill="#4789EB"/>
<path d="M39.6864 114.693H40.9659V110.294H39.6864V114.693Z" fill="#4789EB"/>
<path d="M10.0775 86.6807H11.3571V84.0785H10.0775V86.6807Z" fill="#4789EB"/>
<path d="M12.6797 86.6807H13.9592V84.0785H12.6797V86.6807Z" fill="#4789EB"/>
<path d="M10.0775 90.375H11.3571V87.7728H10.0775V90.375Z" fill="#4789EB"/>
<path d="M12.6797 90.375H13.9592V87.7728H12.6797V90.375Z" fill="#4789EB"/>
<path d="M10.0775 94.0625H11.3571V91.4603H10.0775V94.0625Z" fill="#4789EB"/>
<path d="M12.6797 94.0625H13.9592V91.4603H12.6797V94.0625Z" fill="#4789EB"/>
<path d="M10.0775 97.75H11.3571V95.1478H10.0775V97.75Z" fill="#4789EB"/>
<path d="M12.6797 97.75H13.9592V95.1478H12.6797V97.75Z" fill="#4789EB"/>
<path d="M10.0775 101.445H11.3571V98.8431H10.0775V101.445Z" fill="#4789EB"/>
<path d="M12.6797 101.445H13.9592V98.8431H12.6797V101.445Z" fill="#4789EB"/>
<path d="M10.0775 105.212H11.3571V102.61H10.0775V105.212Z" fill="#4789EB"/>
<path d="M12.6797 105.212H13.9592V102.61H12.6797V105.212Z" fill="#4789EB"/>
<path d="M10.0775 108.893H11.3571V106.29H10.0775V108.893Z" fill="#4789EB"/>
<path d="M12.6797 108.893H13.9592V106.29H12.6797V108.893Z" fill="#4789EB"/>
<path d="M20.5366 86.2354H21.8161V83.6332H20.5366V86.2354Z" fill="#4789EB"/>
<path d="M23.146 86.2354H24.4255V83.6332H23.146V86.2354Z" fill="#4789EB"/>
<path d="M20.5366 89.9229H21.8161V87.3207H20.5366V89.9229Z" fill="#4789EB"/>
<path d="M23.146 89.9229H24.4255V87.3207H23.146V89.9229Z" fill="#4789EB"/>
<path d="M20.5366 93.6172H21.8161V91.015H20.5366V93.6172Z" fill="#4789EB"/>
<path d="M23.146 93.6172H24.4255V91.015H23.146V93.6172Z" fill="#4789EB"/>
<path d="M20.5366 97.3047H21.8161V94.7025H20.5366V97.3047Z" fill="#4789EB"/>
<path d="M23.146 97.3047H24.4255V94.7025H23.146V97.3047Z" fill="#4789EB"/>
<path d="M20.5366 101H21.8161V98.3978H20.5366V101Z" fill="#4789EB"/>
<path d="M23.146 101H24.4255V98.3978H23.146V101Z" fill="#4789EB"/>
<path d="M20.5366 104.76H21.8161V102.158H20.5366V104.76Z" fill="#4789EB"/>
<path d="M23.146 104.76H24.4255V102.158H23.146V104.76Z" fill="#4789EB"/>
<path d="M20.5366 108.454H21.8161V105.852H20.5366V108.454Z" fill="#4789EB"/>
<path d="M23.146 108.454H24.4255V105.852H23.146V108.454Z" fill="#4789EB"/>
<path d="M8.3667 113.975H7.28126V82.8785L8.3667 81.0742V113.975Z" fill="#4789EB"/>
<path d="M18.7107 113.975H17.6253V82.8785L18.7107 81.0742V113.975Z" fill="#4789EB"/>
<path d="M29.1195 113.975H30.9453V88.5713L29.1195 89.8005V113.975Z" fill="#4789EB"/>
<path d="M80.5809 63.1744H82.5074L81.5442 39L80.5809 63.1744Z" fill="#4789EB"/>
<path d="M84.7214 63.1748H78.2231V104.458H84.7214V63.1748Z" fill="#4789EB"/>
<path d="M88.524 81.0666V84.8046H90.5296V110.208H92.5998V75.9629L88.524 81.0666Z" fill="#4789EB"/>
<path d="M42.6336 79.1258L42.5976 110.208H44.6751V75.9629L42.6336 79.1258Z" fill="#4789EB"/>
<path d="M90.5296 84.8047H78.2016V110.208H90.5296V84.8047Z" fill="#7EBEFF"/>
<path d="M57.0031 75.8262H44.6751V110.208H57.0031V75.8262Z" fill="#7EBEFF"/>
<path d="M147.871 84.8047H135.543V110.208H147.871V84.8047Z" fill="#7EBEFF"/>
<path d="M120.498 77.3076H112.972V110.209H120.498V77.3076Z" fill="#7EBEFF"/>
<path d="M67.4694 81.4473H59.9431V110.208H67.4694V81.4473Z" fill="#7EBEFF"/>
<path d="M130.842 77.3076H123.316V110.209H130.842V77.3076Z" fill="#7EBEFF"/>
<path d="M104.928 110.208H92.5998V75.963L104.928 69.5869V110.208Z" fill="#7EBEFF"/>
<path d="M94.936 83.9346H96.2156V79.5353H94.936V83.9346Z" fill="#4789EB"/>
<path d="M98.1133 83.9346H99.3928V79.5353H98.1133V83.9346Z" fill="#4789EB"/>
<path d="M101.291 83.9346H102.57V79.5353H101.291V83.9346Z" fill="#4789EB"/>
<path d="M94.936 90.167H96.2156V85.7677H94.936V90.167Z" fill="#4789EB"/>
<path d="M98.1133 90.167H99.3928V85.7677H98.1133V90.167Z" fill="#4789EB"/>
<path d="M101.291 90.167H102.57V85.7677H101.291V90.167Z" fill="#4789EB"/>
<path d="M94.936 96.3916H96.2156V91.9923H94.936V96.3916Z" fill="#4789EB"/>
<path d="M98.1133 96.3916H99.3928V91.9923H98.1133V96.3916Z" fill="#4789EB"/>
<path d="M101.291 96.3916H102.57V91.9923H101.291V96.3916Z" fill="#4789EB"/>
<path d="M94.936 102.632H96.2156V98.2326H94.936V102.632Z" fill="#4789EB"/>
<path d="M98.1133 102.632H99.3928V98.2326H98.1133V102.632Z" fill="#4789EB"/>
<path d="M101.291 102.632H102.57V98.2326H101.291V102.632Z" fill="#4789EB"/>
<path d="M94.936 108.856H96.2156V104.457H94.936V108.856Z" fill="#4789EB"/>
<path d="M98.1133 108.856H99.3928V104.457H98.1133V108.856Z" fill="#4789EB"/>
<path d="M101.291 108.856H102.57V104.457H101.291V108.856Z" fill="#4789EB"/>
<path d="M137.937 92.2451H139.216V87.8458H137.937V92.2451Z" fill="#4789EB"/>
<path d="M141.114 92.2451H142.394V87.8458H141.114V92.2451Z" fill="#4789EB"/>
<path d="M144.284 92.2451H145.564V87.8458H144.284V92.2451Z" fill="#4789EB"/>
<path d="M137.937 98.4707H139.216V94.0714H137.937V98.4707Z" fill="#4789EB"/>
<path d="M141.114 98.4707H142.394V94.0714H141.114V98.4707Z" fill="#4789EB"/>
<path d="M144.284 98.4707H145.564V94.0714H144.284V98.4707Z" fill="#4789EB"/>
<path d="M137.937 104.702H139.216V100.303H137.937V104.702Z" fill="#4789EB"/>
<path d="M141.114 104.702H142.394V100.303H141.114V104.702Z" fill="#4789EB"/>
<path d="M144.284 104.702H145.564V100.303H144.284V104.702Z" fill="#4789EB"/>
<path d="M137.937 110.935H139.216V106.535H137.937V110.935Z" fill="#4789EB"/>
<path d="M141.114 110.935H142.394V106.535H141.114V110.935Z" fill="#4789EB"/>
<path d="M144.284 110.935H145.564V106.535H144.284V110.935Z" fill="#4789EB"/>
<path d="M80.9763 92.5469H82.2558V88.1476H80.9763V92.5469Z" fill="#4789EB"/>
<path d="M84.1535 92.5469H85.4331V88.1476H84.1535V92.5469Z" fill="#4789EB"/>
<path d="M87.3308 92.5469H88.6103V88.1476H87.3308V92.5469Z" fill="#4789EB"/>
<path d="M80.9763 98.7793H82.2558V94.38H80.9763V98.7793Z" fill="#4789EB"/>
<path d="M84.1535 98.7793H85.4331V94.38H84.1535V98.7793Z" fill="#4789EB"/>
<path d="M87.3308 98.7793H88.6103V94.38H87.3308V98.7793Z" fill="#4789EB"/>
<path d="M80.9763 105.004H82.2558V100.605H80.9763V105.004Z" fill="#4789EB"/>
<path d="M84.1535 105.004H85.4331V100.605H84.1535V105.004Z" fill="#4789EB"/>
<path d="M87.3308 105.004H88.6103V100.605H87.3308V105.004Z" fill="#4789EB"/>
<path d="M47.421 83.9346H48.7006V79.5353H47.421V83.9346Z" fill="#4789EB"/>
<path d="M50.5983 83.9346H51.8778V79.5353H50.5983V83.9346Z" fill="#4789EB"/>
<path d="M53.7756 83.9346H55.0551V79.5353H53.7756V83.9346Z" fill="#4789EB"/>
<path d="M47.421 90.167H48.7006V85.7677H47.421V90.167Z" fill="#4789EB"/>
<path d="M50.5983 90.167H51.8778V85.7677H50.5983V90.167Z" fill="#4789EB"/>
<path d="M53.7756 90.167H55.0551V85.7677H53.7756V90.167Z" fill="#4789EB"/>
<path d="M47.421 96.3916H48.7006V91.9923H47.421V96.3916Z" fill="#4789EB"/>
<path d="M50.5983 96.3916H51.8778V91.9923H50.5983V96.3916Z" fill="#4789EB"/>
<path d="M53.7756 96.3916H55.0551V91.9923H53.7756V96.3916Z" fill="#4789EB"/>
<path d="M47.421 102.632H48.7006V98.2326H47.421V102.632Z" fill="#4789EB"/>
<path d="M50.5983 102.632H51.8778V98.2326H50.5983V102.632Z" fill="#4789EB"/>
<path d="M53.7756 102.632H55.0551V98.2326H53.7756V102.632Z" fill="#4789EB"/>
<path d="M47.421 108.856H48.7006V104.457H47.421V108.856Z" fill="#4789EB"/>
<path d="M50.5983 108.856H51.8778V104.457H50.5983V108.856Z" fill="#4789EB"/>
<path d="M53.7756 108.856H55.0551V104.457H53.7756V108.856Z" fill="#4789EB"/>
<path d="M114.675 82.9219H115.955V80.3197H114.675V82.9219Z" fill="#4789EB"/>
<path d="M117.277 82.9219H118.557V80.3197H117.277V82.9219Z" fill="#4789EB"/>
<path d="M114.675 86.6094H115.955V84.0072H114.675V86.6094Z" fill="#4789EB"/>
<path d="M117.277 86.6094H118.557V84.0072H117.277V86.6094Z" fill="#4789EB"/>
<path d="M114.675 90.2969H115.955V87.6947H114.675V90.2969Z" fill="#4789EB"/>
<path d="M117.277 90.2969H118.557V87.6947H117.277V90.2969Z" fill="#4789EB"/>
<path d="M114.675 93.9912H115.955V91.389H114.675V93.9912Z" fill="#4789EB"/>
<path d="M117.277 93.9912H118.557V91.389H117.277V93.9912Z" fill="#4789EB"/>
<path d="M114.675 97.6797H115.955V95.0775H114.675V97.6797Z" fill="#4789EB"/>
<path d="M117.277 97.6797H118.557V95.0775H117.277V97.6797Z" fill="#4789EB"/>
<path d="M114.675 101.446H115.955V98.8441H114.675V101.446Z" fill="#4789EB"/>
<path d="M117.277 101.446H118.557V98.8441H117.277V101.446Z" fill="#4789EB"/>
<path d="M114.675 105.134H115.955V102.532H114.675V105.134Z" fill="#4789EB"/>
<path d="M117.277 105.134H118.557V102.532H117.277V105.134Z" fill="#4789EB"/>
<path d="M61.7474 86.6094H63.027V84.0072H61.7474V86.6094Z" fill="#4789EB"/>
<path d="M64.3496 86.6094H65.6291V84.0072H64.3496V86.6094Z" fill="#4789EB"/>
<path d="M61.7474 90.2969H63.027V87.6947H61.7474V90.2969Z" fill="#4789EB"/>
<path d="M64.3496 90.2969H65.6291V87.6947H64.3496V90.2969Z" fill="#4789EB"/>
<path d="M61.7474 93.9912H63.027V91.389H61.7474V93.9912Z" fill="#4789EB"/>
<path d="M64.3496 93.9912H65.6291V91.389H64.3496V93.9912Z" fill="#4789EB"/>
<path d="M61.7474 97.6787H63.027V95.0765H61.7474V97.6787Z" fill="#4789EB"/>
<path d="M64.3496 97.6787H65.6291V95.0765H64.3496V97.6787Z" fill="#4789EB"/>
<path d="M61.7474 101.445H63.027V98.8431H61.7474V101.445Z" fill="#4789EB"/>
<path d="M64.3496 101.445H65.6291V98.8431H64.3496V101.445Z" fill="#4789EB"/>
<path d="M61.7474 105.134H63.027V102.532H61.7474V105.134Z" fill="#4789EB"/>
<path d="M64.3496 105.134H65.6291V102.532H64.3496V105.134Z" fill="#4789EB"/>
<path d="M125.134 82.4688H126.414V79.8666H125.134V82.4688Z" fill="#4789EB"/>
<path d="M127.744 82.4688H129.023V79.8666H127.744V82.4688Z" fill="#4789EB"/>
<path d="M125.134 86.1631H126.414V83.5609H125.134V86.1631Z" fill="#4789EB"/>
<path d="M127.744 86.1631H129.023V83.5609H127.744V86.1631Z" fill="#4789EB"/>
<path d="M125.134 89.8506H126.414V87.2484H125.134V89.8506Z" fill="#4789EB"/>
<path d="M127.744 89.8506H129.023V87.2484H127.744V89.8506Z" fill="#4789EB"/>
<path d="M125.134 93.5381H126.414V90.9359H125.134V93.5381Z" fill="#4789EB"/>
<path d="M127.744 93.5381H129.023V90.9359H127.744V93.5381Z" fill="#4789EB"/>
<path d="M125.134 97.2334H126.414V94.6312H125.134V97.2334Z" fill="#4789EB"/>
<path d="M127.744 97.2334H129.023V94.6312H127.744V97.2334Z" fill="#4789EB"/>
<path d="M125.134 101H126.414V98.3978H125.134V101Z" fill="#4789EB"/>
<path d="M127.744 101H129.023V98.3978H127.744V101Z" fill="#4789EB"/>
<path d="M125.134 104.688H126.414V102.085H125.134V104.688Z" fill="#4789EB"/>
<path d="M127.744 104.688H129.023V102.085H127.744V104.688Z" fill="#4789EB"/>
<path d="M112.972 110.209H111.886V79.1119L112.972 77.3076V110.209Z" fill="#4789EB"/>
<path d="M123.316 110.209H122.23V79.1119L123.316 77.3076V110.209Z" fill="#4789EB"/>
<path d="M133.717 110.208H135.543V84.8047L133.717 86.0339V110.208Z" fill="#4789EB"/>
<path d="M76.3757 110.208H78.2016V84.8047L76.3757 86.0339V110.208Z" fill="#4789EB"/>
<path d="M58.1173 110.208H59.9431V81.4404L58.1173 82.6696" fill="#4789EB"/>
<path d="M-76 122.903C-76 122.903 246.549 118.583 239.504 125.153C232.46 131.716 206.028 133.046 216.89 136.467C227.751 139.889 283.993 144.863 283.993 144.863V109.985H-75.2955L-76 122.91V122.903Z" fill="#8BBFF3"/>
</g>
<g opacity="0.5">
<g clip-path="url(#clip1_72_2967)">
<path d="M209.447 144.111H0V148.778H209.447V144.111Z" fill="#4789EB"/>
<path d="M133.166 80H131.813V134.544H133.166V80Z" fill="#FFFDFB"/>
<path d="M134.155 80H130.829V97.2291H134.155V80Z" fill="#FFFDFB"/>
<path d="M131.147 80.3145L55.1809 134.859" stroke="#FFFDFB" stroke-miterlimit="10"/>
<path d="M131.147 80.3145L66.3109 134.859" stroke="#FFFDFB" stroke-miterlimit="10"/>
<path d="M131.147 80.3145L75.9246 134.859" stroke="#FFFDFB" stroke-miterlimit="10"/>
<path d="M131.147 80.3145L84.4323 134.859" stroke="#FFFDFB" stroke-miterlimit="10"/>
<path d="M131.147 80.3145L92.1232 134.859" stroke="#FFFDFB" stroke-miterlimit="10"/>
<path d="M131.147 80.3145L99.2151 134.859" stroke="#FFFDFB" stroke-miterlimit="10"/>
<path d="M131.147 80.3145L105.871 134.859" stroke="#FFFDFB" stroke-miterlimit="10"/>
<path d="M131.147 80.3145L112.226 134.859" stroke="#FFFDFB" stroke-miterlimit="10"/>
<path d="M131.147 80.3145L118.388 134.859" stroke="#FFFDFB" stroke-miterlimit="10"/>
<path d="M131.147 80.3145L124.462 134.859" stroke="#FFFDFB" stroke-miterlimit="10"/>
<path d="M133.912 80.2598L209.874 134.804" stroke="#FFFDFB" stroke-miterlimit="10"/>
<path d="M133.912 80.2598L198.744 134.804" stroke="#FFFDFB" stroke-miterlimit="10"/>
<path d="M133.912 80.2598L189.135 134.804" stroke="#FFFDFB" stroke-miterlimit="10"/>
<path d="M133.912 80.2598L180.627 134.804" stroke="#FFFDFB" stroke-miterlimit="10"/>
<path d="M133.912 80.2598L172.932 134.804" stroke="#FFFDFB" stroke-miterlimit="10"/>
<path d="M133.912 80.2598L165.84 134.804" stroke="#FFFDFB" stroke-miterlimit="10"/>
<path d="M133.912 80.2598L159.184 134.804" stroke="#FFFDFB" stroke-miterlimit="10"/>
<path d="M133.912 80.2598L152.829 134.804" stroke="#FFFDFB" stroke-miterlimit="10"/>
<path d="M133.912 80.2598L146.667 134.804" stroke="#FFFDFB" stroke-miterlimit="10"/>
<path d="M133.912 80.2598L140.598 134.804" stroke="#FFFDFB" stroke-miterlimit="10"/>
<path d="M120.717 132.999L119.414 132.697L131.529 94.9336L132.831 95.2394L120.717 132.999Z" fill="#FFFDFB"/>
<path d="M144.284 132.999L145.591 132.697L133.476 94.9336L132.169 95.2394L144.284 132.999Z" fill="#FFFDFB"/>
<path d="M6.6269 134.008V147.701H5.077V134.008H6.6269ZM16.2573 134.008V147.701H17.8072V134.008H16.2573ZM27.4418 134.008V147.701H28.9917V134.008H27.4418ZM38.6262 134.008V147.701H40.1761V134.008H38.6262ZM49.8107 134.008V147.701H51.3606V134.008H49.8107ZM60.9952 134.008V147.701H62.5451V134.008H60.9952ZM72.1796 134.008V147.701H73.7296V134.008H72.1796ZM83.3641 134.008V147.701H84.914V134.008H83.3641ZM184.02 134.008V147.701H185.57V134.008H184.02ZM195.205 134.008V147.701H196.755V134.008H195.205ZM206.389 134.008V147.701H207.939V134.008H206.389Z" fill="#FFFDFB"/>
<path d="M145.52 135.445L143.769 134.863L138.235 143.106L133.053 134.699L131.759 135.118L130.997 134.867L125.463 143.111L120.281 134.703L118.539 135.265L124.374 144.736L124.684 145.239H120.399V146.453H144.552V145.239H138.939L145.515 135.449L145.52 135.445ZM126.045 145.234L132.052 136.463L137.146 144.732L137.456 145.234H126.045Z" fill="#4789EB"/>
<path d="M209.447 131.763H0V135.746H209.447V131.763Z" fill="#FFFDFB"/>
<path d="M209.447 134.008H0V135.746H209.447V134.008Z" fill="#4789EB"/>
<path d="M6.6269 135.558V141.372H5.077V135.558H6.6269ZM16.2573 135.558V141.372H17.8072V135.558H16.2573ZM27.4418 135.558V141.372H28.9917V135.558H27.4418ZM38.6262 135.558V141.372H40.1761V135.558H38.6262ZM49.8107 135.558V141.372H51.3606V135.558H49.8107ZM60.9952 135.558V141.372H62.5451V135.558H60.9952ZM72.1796 135.558V141.372H73.7296V135.558H72.1796ZM83.3641 135.558V141.372H84.914V135.558H83.3641ZM184.02 135.558V141.372H185.57V135.558H184.02ZM195.205 135.558V141.372H196.755V135.558H195.205ZM206.389 135.558V141.372H207.939V135.558H206.389Z" fill="#4789EB"/>
<path d="M139.4 141.372L138.235 143.106L137.167 141.372H135.077L137.146 144.727L137.456 145.234H126.045L128.688 141.372H126.632L125.467 143.106L124.399 141.372H122.309L124.378 144.727L124.688 145.234H120.403V146.445H144.556V145.234H138.939L141.536 141.372H139.4Z" fill="#FFFDFB"/>
</g>
</g>
</g>
<defs>
<clipPath id="clip0_72_2967">
<rect width="360" height="105.863" fill="white" transform="translate(-76 39)"/>
</clipPath>
<clipPath id="clip1_72_2967">
<rect width="210" height="68.7782" fill="white" transform="translate(0 80)"/>
</clipPath>
</defs>
</svg>
